<svg width="40" height="40" viewBox="0 0 40 40" fill="none" xmlns="http://www.w3.org/2000/svg">
<path d="M19.9997 36.6663C10.7949 36.6663 3.33301 29.2043 3.33301 19.9997C3.33301 10.7949 10.7949 3.33301 19.9997 3.33301C29.2043 3.33301 36.6663 10.7949 36.6663 19.9997C36.6663 29.2043 29.2043 36.6663 19.9997 36.6663ZM19.9997 33.333C27.3635 33.333 33.333 27.3635 33.333 19.9997C33.333 12.6359 27.3635 6.66634 19.9997 6.66634C12.6359 6.66634 6.66634 12.6359 6.66634 19.9997C6.66634 27.3635 12.6359 33.333 19.9997 33.333ZM18.3373 26.6663L11.2663 19.5953L13.6234 17.2382L18.3373 21.9523L27.7655 12.5242L30.1225 14.8812L18.3373 26.6663Z" fill="#D57A66"/>
</svg>
