<svg width="40" height="40" viewBox="0 0 40 40" fill="none" xmlns="http://www.w3.org/2000/svg">
<path d="M12.1516 34.7067L3.33301 36.6663L5.29269 27.8477C4.04207 25.509 3.33301 22.8372 3.33301 19.9997C3.33301 10.7949 10.7949 3.33301 19.9997 3.33301C29.2043 3.33301 36.6663 10.7949 36.6663 19.9997C36.6663 29.2043 29.2043 36.6663 19.9997 36.6663C17.1622 36.6663 14.4903 35.9573 12.1516 34.7067ZM12.6343 31.1847L13.7235 31.7672C15.6371 32.7905 17.7755 33.333 19.9997 33.333C27.3635 33.333 33.333 27.3635 33.333 19.9997C33.333 12.6359 27.3635 6.66634 19.9997 6.66634C12.6359 6.66634 6.66634 12.6359 6.66634 19.9997C6.66634 22.2238 7.20882 24.3622 8.23216 26.2758L8.81461 27.365L7.72327 32.276L12.6343 31.1847Z" fill="#D57A66"/>
</svg>
