<svg width="40" height="40" viewBox="0 0 40 40" fill="none" xmlns="http://www.w3.org/2000/svg">
<path d="M20 36.6663C10.7952 36.6663 3.33333 29.2043 3.33333 19.9997C3.33333 10.7949 10.7952 3.33301 20 3.33301C29.2047 3.33301 36.6667 10.7949 36.6667 19.9997C36.6667 29.2043 29.2047 36.6663 20 36.6663ZM20 33.333C27.3638 33.333 33.3333 27.3635 33.3333 19.9997C33.3333 12.6359 27.3638 6.66634 20 6.66634C12.6362 6.66634 6.66666 12.6359 6.66666 19.9997C6.66666 27.3635 12.6362 33.333 20 33.333ZM25.8333 14.1663L22.5 22.4997L14.1667 25.833L17.5 17.4997L25.8333 14.1663Z" fill="#D57A66"/>
</svg>
