<svg width="40" height="40" viewBox="0 0 40 40" fill="none" xmlns="http://www.w3.org/2000/svg">
<path d="M14.9997 4.09601V7.63554C10.1133 9.61349 6.66634 14.404 6.66634 19.9997C6.66634 27.3635 12.6359 33.333 19.9997 33.333C25.5953 33.333 30.3858 29.886 32.3638 24.9997H35.9033C33.7795 31.7615 27.4623 36.6663 19.9997 36.6663C10.7949 36.6663 3.33301 29.2043 3.33301 19.9997C3.33301 12.5369 8.23782 6.21979 14.9997 4.09601ZM19.9997 3.33301C29.2043 3.33301 36.6663 10.7949 36.6663 19.9997C36.6663 20.5622 36.6385 21.1182 36.584 21.6663H18.333V3.41531C18.8812 3.36087 19.4372 3.33301 19.9997 3.33301ZM21.6663 6.76949V18.333H33.2298C32.4778 12.3018 27.6975 7.52157 21.6663 6.76949Z" fill="#D57A66"/>
</svg>
