<svg width="41" height="40" viewBox="0 0 41 40" fill="none" xmlns="http://www.w3.org/2000/svg">
<path d="M17.2884 29.9997H18.9999V21.6663H22.3333V29.9997H24.0448C24.2648 27.997 25.2868 26.3438 26.9459 24.5373C27.1328 24.334 28.3312 23.0937 28.4734 22.9165C29.8862 21.1548 30.6666 18.9747 30.6666 16.6663C30.6666 11.1435 26.1894 6.66634 20.6666 6.66634C15.1437 6.66634 10.6666 11.1435 10.6666 16.6663C10.6666 18.9735 11.4462 21.1525 12.8576 22.9137C13 23.0913 14.2013 24.335 14.3858 24.536C16.046 26.3437 17.0683 27.997 17.2884 29.9997ZM17.3333 33.333V34.9997H23.9999V33.333H17.3333ZM10.2565 24.9983C8.42734 22.7158 7.33325 19.8188 7.33325 16.6663C7.33325 9.30254 13.3028 3.33301 20.6666 3.33301C28.0304 3.33301 33.9999 9.30254 33.9999 16.6663C33.9999 19.8205 32.9046 22.7188 31.0738 25.002C30.0399 26.291 27.3333 28.333 27.3333 30.833V34.9997C27.3333 36.8407 25.8409 38.333 23.9999 38.333H17.3333C15.4923 38.333 13.9999 36.8407 13.9999 34.9997V30.833C13.9999 28.333 11.2909 26.289 10.2565 24.9983Z" fill="#D57A66"/>
</svg>
