<svg width="40" height="40" viewBox="0 0 40 40" fill="none" xmlns="http://www.w3.org/2000/svg">
<path d="M28.3334 25.4093V36.8618C28.3334 37.322 27.9602 37.6953 27.5001 37.6953C27.3491 37.6953 27.2009 37.6542 27.0714 37.5765L20.0001 33.3337L12.9288 37.5765C12.5342 37.8132 12.0223 37.6852 11.7855 37.2907C11.7078 37.161 11.6667 37.0128 11.6667 36.8618V25.4093C8.61853 22.9658 6.66675 19.211 6.66675 15.0003C6.66675 7.63653 12.6363 1.66699 20.0001 1.66699C27.3639 1.66699 33.3334 7.63653 33.3334 15.0003C33.3334 19.211 31.3816 22.9658 28.3334 25.4093ZM15.0001 27.3645V32.4463L20.0001 29.4463L25.0001 32.4463V27.3645C23.4561 27.9895 21.7682 28.3337 20.0001 28.3337C18.2319 28.3337 16.5441 27.9895 15.0001 27.3645ZM20.0001 25.0003C25.5229 25.0003 30.0001 20.5232 30.0001 15.0003C30.0001 9.47748 25.5229 5.00033 20.0001 5.00033C14.4772 5.00033 10.0001 9.47748 10.0001 15.0003C10.0001 20.5232 14.4772 25.0003 20.0001 25.0003Z" fill="#D57A66"/>
</svg>
