<svg width="32" height="32" viewBox="0 0 32 32" fill="none" xmlns="http://www.w3.org/2000/svg">
<path d="M13.2971 24.0003H14.6663V17.3337H17.333V24.0003H18.7022C18.8782 22.3982 19.6958 21.0757 21.0231 19.6305C21.1726 19.4678 22.1314 18.4755 22.2451 18.3338C23.3754 16.9245 23.9997 15.1803 23.9997 13.3337C23.9997 8.91538 20.4179 5.33366 15.9997 5.33366C11.5814 5.33366 7.99967 8.91538 7.99967 13.3337C7.99967 15.1794 8.62333 16.9226 9.7525 18.3315C9.86639 18.4737 10.8274 19.4686 10.9751 19.6294C12.3032 21.0755 13.121 22.3982 13.2971 24.0003ZM13.333 26.667V28.0003H18.6663V26.667H13.333ZM7.67161 19.9993C6.20827 18.1733 5.33301 15.8557 5.33301 13.3337C5.33301 7.44262 10.1086 2.66699 15.9997 2.66699C21.8907 2.66699 26.6663 7.44262 26.6663 13.3337C26.6663 15.857 25.7901 18.1757 24.3254 20.0022C23.4983 21.0334 21.333 22.667 21.333 24.667V28.0003C21.333 29.4731 20.1391 30.667 18.6663 30.667H13.333C11.8602 30.667 10.6663 29.4731 10.6663 28.0003V24.667C10.6663 22.667 8.49911 21.0318 7.67161 19.9993Z" fill="#D57A66"/>
</svg>
