<svg width="41" height="40" viewBox="0 0 41 40" fill="none" xmlns="http://www.w3.org/2000/svg">
<path d="M20.3332 18.333C24.9355 18.333 28.6665 22.064 28.6665 26.6663V36.6663H25.3332V26.6663C25.3332 24.0035 23.2517 21.8268 20.627 21.6748L20.3332 21.6663C17.6703 21.6663 15.4937 23.7478 15.3417 26.3725L15.3332 26.6663V36.6663H11.9998V26.6663C11.9998 22.064 15.7308 18.333 20.3332 18.333ZM9.49984 23.333C9.96459 23.333 10.4167 23.3873 10.85 23.49C10.5699 24.323 10.3977 25.203 10.3481 26.1152L10.3332 26.6663L10.3343 26.809C10.1458 26.7423 9.94685 26.6975 9.7406 26.6778L9.49984 26.6663C8.20034 26.6663 7.13242 27.6578 7.01129 28.9255L6.99984 29.1663V36.6663H3.6665V29.1663C3.6665 25.9447 6.27817 23.333 9.49984 23.333ZM31.1665 23.333C34.3882 23.333 36.9998 25.9447 36.9998 29.1663V36.6663H33.6665V29.1663C33.6665 27.8668 32.675 26.799 31.4073 26.6778L31.1665 26.6663C30.8745 26.6663 30.5942 26.7163 30.3337 26.8083L30.3332 26.6663C30.3332 25.5568 30.1525 24.4897 29.819 23.4923C30.2497 23.3873 30.7017 23.333 31.1665 23.333ZM9.49984 13.333C11.801 13.333 13.6665 15.1985 13.6665 17.4997C13.6665 19.8008 11.801 21.6663 9.49984 21.6663C7.19865 21.6663 5.33317 19.8008 5.33317 17.4997C5.33317 15.1985 7.19865 13.333 9.49984 13.333ZM31.1665 13.333C33.4677 13.333 35.3332 15.1985 35.3332 17.4997C35.3332 19.8008 33.4677 21.6663 31.1665 21.6663C28.8653 21.6663 26.9998 19.8008 26.9998 17.4997C26.9998 15.1985 28.8653 13.333 31.1665 13.333ZM9.49984 16.6663C9.0396 16.6663 8.6665 17.0395 8.6665 17.4997C8.6665 17.9598 9.0396 18.333 9.49984 18.333C9.96007 18.333 10.3332 17.9598 10.3332 17.4997C10.3332 17.0395 9.96007 16.6663 9.49984 16.6663ZM31.1665 16.6663C30.7063 16.6663 30.3332 17.0395 30.3332 17.4997C30.3332 17.9598 30.7063 18.333 31.1665 18.333C31.6267 18.333 31.9998 17.9598 31.9998 17.4997C31.9998 17.0395 31.6267 16.6663 31.1665 16.6663ZM20.3332 3.33301C24.015 3.33301 26.9998 6.31777 26.9998 9.99967C26.9998 13.6816 24.015 16.6663 20.3332 16.6663C16.6513 16.6663 13.6665 13.6816 13.6665 9.99967C13.6665 6.31777 16.6513 3.33301 20.3332 3.33301ZM20.3332 6.66634C18.4922 6.66634 16.9998 8.15872 16.9998 9.99967C16.9998 11.8406 18.4922 13.333 20.3332 13.333C22.1742 13.333 23.6665 11.8406 23.6665 9.99967C23.6665 8.15872 22.1742 6.66634 20.3332 6.66634Z" fill="#D57A66"/>
</svg>
