<svg width="32" height="32" viewBox="0 0 32 32" fill="none" xmlns="http://www.w3.org/2000/svg">
<path d="M20 5.33366H6.66667V26.667H25.3333V10.667H20V5.33366ZM4 3.98939C4 3.25906 4.59665 2.66699 5.33133 2.66699H21.3333L27.9996 9.33366L28 27.9903C28 28.7322 27.4068 29.3337 26.6755 29.3337H5.32453C4.59301 29.3337 4 28.7266 4 28.0113V3.98939ZM23.5425 16.0003L18.8284 20.7143L16.9428 18.8287L19.7712 16.0003L16.9428 13.1719L18.8284 11.2863L23.5425 16.0003ZM8.45753 16.0003L13.1716 11.2863L15.0572 13.1719L12.2288 16.0003L15.0572 18.8287L13.1716 20.7143L8.45753 16.0003Z" fill="#D57A66"/>
</svg>
