<svg width="41" height="40" viewBox="0 0 41 40" fill="none" xmlns="http://www.w3.org/2000/svg">
<path d="M34 17.643L37.0473 14.5956L39.4043 16.9527L32.3333 24.0237L25.2623 16.9527L27.6193 14.5956L30.6667 17.643V13.3333C30.6667 10.5719 28.4282 8.33333 25.6667 8.33333H19V5H25.6667C30.269 5 34 8.73097 34 13.3333V17.643ZM22.3333 15C23.2538 15 24 15.7462 24 16.6667V33.3333C24 34.2538 23.2538 35 22.3333 35H5.66667C4.7462 35 4 34.2538 4 33.3333V16.6667C4 15.7462 4.7462 15 5.66667 15H22.3333ZM20.6667 18.3333H7.33333V31.6667H20.6667V18.3333Z" fill="#D57A66"/>
</svg>
