<svg width="48" height="48" viewBox="0 0 48 48" fill="none" xmlns="http://www.w3.org/2000/svg">
<path d="M9.16682 34.6421C7.10632 32.4547 6 29.9999 6 26.0205C6 19.0216 10.913 12.7472 18.0612 9.64624L19.8466 12.4015C13.1761 16.0107 11.8724 20.6919 11.3513 23.6439C12.4253 23.0885 13.8312 22.8931 15.2094 23.0209C18.8182 23.3555 21.6624 26.3179 21.6624 29.9999C21.6624 33.8659 18.5283 36.9999 14.6623 36.9999C12.5162 36.9999 10.4639 36.0189 9.16682 34.6421ZM29.1668 34.6421C27.1064 32.4547 26 29.9999 26 26.0205C26 19.0216 30.913 12.7472 38.0612 9.64624L39.8466 12.4015C33.176 16.0107 31.8724 20.6919 31.3512 23.6439C32.4252 23.0885 33.8312 22.8931 35.2094 23.0209C38.8182 23.3555 41.6624 26.3179 41.6624 29.9999C41.6624 33.8659 38.5284 36.9999 34.6624 36.9999C32.5162 36.9999 30.464 36.0189 29.1668 34.6421Z" fill="#D57A66"/>
</svg>
