<svg width="32" height="32" viewBox="0 0 32 32" fill="none" xmlns="http://www.w3.org/2000/svg">
<path d="M15.9997 18.6663V21.333C11.5814 21.333 7.99967 24.9147 7.99967 29.333H5.33301C5.33301 23.4419 10.1086 18.6663 15.9997 18.6663ZM15.9997 17.333C11.5797 17.333 7.99967 13.753 7.99967 9.33301C7.99967 4.91301 11.5797 1.33301 15.9997 1.33301C20.4197 1.33301 23.9997 4.91301 23.9997 9.33301C23.9997 13.753 20.4197 17.333 15.9997 17.333ZM15.9997 14.6663C18.9463 14.6663 21.333 12.2797 21.333 9.33301C21.333 6.38634 18.9463 3.99967 15.9997 3.99967C13.053 3.99967 10.6663 6.38634 10.6663 9.33301C10.6663 12.2797 13.053 14.6663 15.9997 14.6663ZM19.4591 25.0817C19.3766 24.7345 19.333 24.3722 19.333 23.9997C19.333 23.6273 19.3766 23.265 19.459 22.9178L18.1369 22.1545L19.4702 19.845L20.7933 20.6089C21.3174 20.1131 21.9565 19.7375 22.6663 19.5262V17.9997H25.333V19.5262C26.0429 19.7375 26.6818 20.1131 27.2059 20.6089L28.5291 19.8449L29.8626 22.1543L28.5403 22.9177C28.6227 23.265 28.6663 23.6273 28.6663 23.9997C28.6663 24.3721 28.6227 24.7343 28.5403 25.0815L29.8626 25.8449L28.5293 28.1543L27.2061 27.3903C26.6819 27.8862 26.043 28.2618 25.3331 28.473V29.9997H22.6665V28.4731C21.9566 28.2619 21.3175 27.8863 20.7934 27.3905L19.4703 28.1545L18.1369 25.845L19.4591 25.0817ZM23.9997 25.9997C25.1042 25.9997 25.9997 25.1042 25.9997 23.9997C25.9997 22.8951 25.1042 21.9997 23.9997 21.9997C22.8951 21.9997 21.9997 22.8951 21.9997 23.9997C21.9997 25.1042 22.8951 25.9997 23.9997 25.9997Z" fill="#D57A66"/>
</svg>
