<svg width="41" height="40" viewBox="0 0 41 40" fill="none" xmlns="http://www.w3.org/2000/svg">
<path d="M31.9997 13.333H35.333C36.2535 13.333 36.9997 14.0792 36.9997 14.9997V34.9997C36.9997 35.9202 36.2535 36.6663 35.333 36.6663H21.9997C21.0792 36.6663 20.333 35.9202 20.333 34.9997V33.333H6.99967C6.07921 33.333 5.33301 32.5868 5.33301 31.6663V4.99967C5.33301 4.07921 6.07921 3.33301 6.99967 3.33301H30.333C31.2535 3.33301 31.9997 4.07921 31.9997 4.99967V13.333ZM28.6663 13.333V6.66634H8.66634V29.9997H20.333V14.9997C20.333 14.0792 21.0792 13.333 21.9997 13.333H28.6663ZM23.6663 16.6663V33.333H33.6663V16.6663H23.6663Z" fill="#D57A66"/>
</svg>
