<svg width="41" height="40" viewBox="0 0 41 40" fill="none" xmlns="http://www.w3.org/2000/svg">
<path d="M8.99976 13.333C6.23834 13.333 3.99976 11.0944 3.99976 8.33301C3.99976 5.57159 6.23834 3.33301 8.99976 3.33301C11.7612 3.33301 13.9998 5.57159 13.9998 8.33301C13.9998 11.0944 11.7612 13.333 8.99976 13.333ZM32.3331 13.333C29.5716 13.333 27.3331 11.0944 27.3331 8.33301C27.3331 5.57159 29.5716 3.33301 32.3331 3.33301C35.0946 3.33301 37.3331 5.57159 37.3331 8.33301C37.3331 11.0944 35.0946 13.333 32.3331 13.333ZM32.3331 36.6663C29.5716 36.6663 27.3331 34.4278 27.3331 31.6663C27.3331 28.9048 29.5716 26.6663 32.3331 26.6663C35.0946 26.6663 37.3331 28.9048 37.3331 31.6663C37.3331 34.4278 35.0946 36.6663 32.3331 36.6663ZM8.99976 36.6663C6.23834 36.6663 3.99976 34.4278 3.99976 31.6663C3.99976 28.9048 6.23834 26.6663 8.99976 26.6663C11.7612 26.6663 13.9998 28.9048 13.9998 31.6663C13.9998 34.4278 11.7612 36.6663 8.99976 36.6663ZM15.6664 6.66634H25.6664V9.99967H15.6664V6.66634ZM15.6664 29.9997H25.6664V33.333H15.6664V29.9997ZM7.33309 14.9997H10.6664V24.9997H7.33309V14.9997ZM30.6664 14.9997H33.9998V24.9997H30.6664V14.9997Z" fill="#D57A66"/>
</svg>
