<svg width="40" height="40" viewBox="0 0 40 40" fill="none" xmlns="http://www.w3.org/2000/svg">
<path d="M33.4723 25.333L35.4758 26.5351C35.8705 26.772 35.9983 27.2838 35.7616 27.6785C35.6911 27.7958 35.5931 27.894 35.4758 27.9643L20.8575 36.7351C20.3298 37.052 19.6703 37.052 19.1426 36.7351L4.52434 27.9643C4.12969 27.7275 4.00172 27.2156 4.23851 26.821C4.30889 26.7036 4.40704 26.6055 4.52434 26.5351L6.52782 25.333L20.0001 33.4163L33.4723 25.333ZM33.4723 17.4996L35.4758 18.7018C35.8705 18.9386 35.9983 19.4505 35.7616 19.8451C35.6911 19.9625 35.5931 20.0606 35.4758 20.131L20.0001 29.4163L4.52434 20.131C4.12969 19.8941 4.00172 19.3823 4.23851 18.9876C4.30889 18.8703 4.40704 18.7721 4.52434 18.7018L6.52782 17.4996L20.0001 25.583L33.4723 17.4996ZM20.8575 2.18086L35.4758 10.9518C35.8705 11.1886 35.9983 11.7005 35.7616 12.0951C35.6911 12.2124 35.5931 12.3106 35.4758 12.3809L20.0001 21.6663L4.52434 12.3809C4.12969 12.1442 4.00172 11.6323 4.23851 11.2376C4.30889 11.1203 4.40704 11.0222 4.52434 10.9518L19.1426 2.18086C19.6703 1.86419 20.3298 1.86419 20.8575 2.18086ZM20.0001 5.55368L9.81221 11.6664L20.0001 17.7791L30.188 11.6664L20.0001 5.55368Z" fill="#D57A66"/>
</svg>
