<svg width="41" height="40" viewBox="0 0 41 40" fill="none" xmlns="http://www.w3.org/2000/svg">
<path d="M20.3333 3.33301C26.7767 3.33301 32 8.55636 32 14.9997C32 15.1889 31.9955 15.377 31.9867 15.564C35.8775 16.933 38.6667 20.6407 38.6667 24.9997C38.6667 30.5225 34.1895 34.9997 28.6667 34.9997H12C6.47715 34.9997 2 30.5225 2 24.9997C2 20.6407 4.7891 16.933 8.68007 15.564C8.67117 15.377 8.66667 15.1889 8.66667 14.9997C8.66667 8.55636 13.89 3.33301 20.3333 3.33301ZM20.3333 6.66634C15.731 6.66634 12 10.3973 12 14.9997C12 15.1355 12.0032 15.2707 12.0096 15.4054L12.1277 17.8845L9.78638 18.7083C7.14067 19.6392 5.33333 22.1478 5.33333 24.9997C5.33333 28.6815 8.3181 31.6663 12 31.6663H28.6667C32.3485 31.6663 35.3333 28.6815 35.3333 24.9997C35.3333 21.3163 32.35 18.333 28.6667 18.333C25.7217 18.333 23.2228 20.2425 22.3403 22.8908L19.1773 21.8365C20.5008 17.8638 24.25 14.9997 28.6667 14.9997C28.6667 10.3973 24.9357 6.66634 20.3333 6.66634Z" fill="#D57A66"/>
</svg>
