<svg width="32" height="32" viewBox="0 0 32 32" fill="none" xmlns="http://www.w3.org/2000/svg">
<path d="M16.0003 14.666C19.6822 14.666 22.667 17.6508 22.667 21.3327V29.3327H20.0003V21.3327C20.0003 19.2024 18.3351 17.4611 16.2354 17.3395L16.0003 17.3327C13.8701 17.3327 12.1288 18.9979 12.0071 21.0976L12.0003 21.3327V29.3327H9.33366V21.3327C9.33366 17.6508 12.3184 14.666 16.0003 14.666ZM7.33366 18.666C7.70546 18.666 8.06711 18.7095 8.41379 18.7916C8.18969 19.458 8.05196 20.162 8.01227 20.8917L8.00033 21.3327L8.00126 21.4468C7.85042 21.3935 7.69127 21.3576 7.52627 21.3419L7.33366 21.3327C6.29406 21.3327 5.43973 22.1259 5.34282 23.14L5.33366 23.3327V29.3327H2.66699V23.3327C2.66699 20.7553 4.75633 18.666 7.33366 18.666ZM24.667 18.666C27.2443 18.666 29.3337 20.7553 29.3337 23.3327V29.3327H26.667V23.3327C26.667 22.2931 25.8738 21.4388 24.8597 21.3419L24.667 21.3327C24.4334 21.3327 24.2091 21.3727 24.0007 21.4463L24.0003 21.3327C24.0003 20.4451 23.8558 19.5913 23.589 18.7935C23.9335 18.7095 24.2951 18.666 24.667 18.666ZM7.33366 10.666C9.17461 10.666 10.667 12.1584 10.667 13.9993C10.667 15.8403 9.17461 17.3327 7.33366 17.3327C5.49271 17.3327 4.00033 15.8403 4.00033 13.9993C4.00033 12.1584 5.49271 10.666 7.33366 10.666ZM24.667 10.666C26.5079 10.666 28.0003 12.1584 28.0003 13.9993C28.0003 15.8403 26.5079 17.3327 24.667 17.3327C22.8261 17.3327 21.3337 15.8403 21.3337 13.9993C21.3337 12.1584 22.8261 10.666 24.667 10.666ZM7.33366 13.3327C6.96547 13.3327 6.66699 13.6312 6.66699 13.9993C6.66699 14.3675 6.96547 14.666 7.33366 14.666C7.70185 14.666 8.00033 14.3675 8.00033 13.9993C8.00033 13.6312 7.70185 13.3327 7.33366 13.3327ZM24.667 13.3327C24.2989 13.3327 24.0003 13.6312 24.0003 13.9993C24.0003 14.3675 24.2989 14.666 24.667 14.666C25.0351 14.666 25.3337 14.3675 25.3337 13.9993C25.3337 13.6312 25.0351 13.3327 24.667 13.3327ZM16.0003 2.66602C18.9458 2.66602 21.3337 5.05383 21.3337 7.99935C21.3337 10.9449 18.9458 13.3327 16.0003 13.3327C13.0548 13.3327 10.667 10.9449 10.667 7.99935C10.667 5.05383 13.0548 2.66602 16.0003 2.66602ZM16.0003 5.33268C14.5275 5.33268 13.3337 6.52659 13.3337 7.99935C13.3337 9.47211 14.5275 10.666 16.0003 10.666C17.4731 10.666 18.667 9.47211 18.667 7.99935C18.667 6.52659 17.4731 5.33268 16.0003 5.33268Z" fill="#D57A66"/>
</svg>
