<svg width="32" height="32" viewBox="0 0 32 32" fill="none" xmlns="http://www.w3.org/2000/svg">
<path d="M22.7924 9.52792C23.5832 9.24099 23.9757 9.13772 24.1932 9.10079C24.1948 9.17032 24.1932 9.2267 24.1896 9.26368C23.8795 12.5222 22.5208 20.5391 21.8229 24.2695C21.6596 25.1431 21.5343 25.559 20.6905 25.0633C20.1352 24.7369 19.6327 24.3263 19.0943 23.9733C17.3281 22.8155 14.8 21.0912 15.0076 21.1949C13.2688 20.0491 13.9967 19.3475 14.9673 18.4117C15.1245 18.2603 15.288 18.1027 15.4484 17.936C15.52 17.8616 15.8703 17.5359 16.3641 17.0768C17.9483 15.604 21.0095 12.7581 21.0868 12.4287C21.0995 12.3747 21.1112 12.1733 20.9915 12.0669C20.8719 11.9606 20.6953 11.9969 20.5679 12.0259C20.3872 12.0669 17.5101 13.9685 11.9366 17.7308C11.1199 18.2916 10.3802 18.5649 9.71748 18.5505L9.72341 18.5535C8.85041 18.2456 7.97986 17.9805 7.10473 17.714C6.52981 17.5388 5.95292 17.3631 5.37205 17.1743C5.22998 17.1281 5.09137 17.0843 4.9611 17.0433C10.9971 14.4139 15.0173 12.6826 17.0319 11.8447C19.9579 10.6277 21.6935 9.9267 22.7924 9.52792ZM26.0225 6.95676C25.6847 6.6826 25.3133 6.55678 25.0553 6.49515C24.7889 6.43151 24.5357 6.41103 24.3437 6.41442C23.7085 6.4256 23.0263 6.60626 21.8828 7.02118C20.7164 7.44444 18.924 8.16952 16.0077 9.3825C13.9517 10.2377 9.8585 12.0009 3.7382 14.6673C3.20061 14.8823 2.70781 15.1261 2.31845 15.4152C1.95892 15.6823 1.45564 16.16 1.36357 16.8945C1.29402 17.4492 1.45576 17.9612 1.78376 18.3644C2.0693 18.7153 2.43513 18.9285 2.71372 19.0635C3.12726 19.2638 3.68368 19.4382 4.17269 19.5915C4.93685 19.8309 5.69925 20.0756 6.46505 20.31C8.83588 21.0357 10.7875 21.6331 12.9349 23.0481C14.51 24.0861 16.0547 25.1693 17.6324 26.2035C18.2079 26.5807 18.7457 27.0136 19.3399 27.3625C19.9888 27.7439 20.8139 28.0916 21.8181 27.9991C23.3359 27.8595 24.1255 26.4632 24.4441 24.7597C25.1403 21.0388 26.5212 12.9107 26.8443 9.51634C26.8864 9.07327 26.8371 8.57668 26.796 8.33692C26.7537 8.09002 26.6245 7.44532 26.0225 6.95676Z" fill="#DBD1C5"/>
</svg>
