<svg width="24" height="24" viewBox="0 0 24 24" fill="none" xmlns="http://www.w3.org/2000/svg">
<path d="M6 21.5004C4.067 21.5004 2.5 19.9334 2.5 18.0004C2.5 16.0674 4.067 14.5004 6 14.5004C7.5852 14.5004 8.92427 15.5543 9.35481 16.9996L15 16.9998V15.0004L17 14.9998V9.24381L14.757 6.9998H9V9.00045H3V3.00045H9V4.99981H14.757L18 1.75781L22.2426 6.00045L19 9.24181V14.9998L21 15.0004V21.0004H15V18.9998L9.35499 19.0007C8.92464 20.4463 7.58543 21.5004 6 21.5004ZM6 16.5004C5.17157 16.5004 4.5 17.172 4.5 18.0004C4.5 18.8289 5.17157 19.5004 6 19.5004C6.82843 19.5004 7.5 18.8289 7.5 18.0004C7.5 17.172 6.82843 16.5004 6 16.5004ZM19 17.0004H17V19.0004H19V17.0004ZM18 4.58623L16.5858 6.00045L18 7.41466L19.4142 6.00045L18 4.58623ZM7 5.00045H5V7.00045H7V5.00045Z" fill="#DBD1C5"/>
</svg>
