<svg width="40" height="40" viewBox="0 0 40 40" fill="none" xmlns="http://www.w3.org/2000/svg">
<path d="M15.9163 19.1663C13.8453 19.1663 12.1663 17.4873 12.1663 15.4163C12.1663 13.3453 13.8453 11.6663 15.9163 11.6663C17.9873 11.6663 19.6663 13.3453 19.6663 15.4163C19.6663 17.4873 17.9873 19.1663 15.9163 19.1663ZM16.6663 32.913V27.333C16.6663 26.519 16.9067 25.7708 17.3398 25.1037C16.8475 25.0352 16.3444 24.9997 15.833 24.9997C13.2197 24.9997 10.8225 25.925 8.95119 27.4658C10.7482 30.1198 13.4762 32.0918 16.6663 32.913ZM7.42111 24.433C9.77354 22.6943 12.6832 21.6663 15.833 21.6663C17.5722 21.6663 19.2382 21.9797 20.7775 22.5532C22.2408 21.981 23.987 21.6663 25.833 21.6663C28.5992 21.6663 31.1412 22.3728 32.843 23.5935C33.1623 22.4502 33.333 21.2448 33.333 19.9997C33.333 12.6359 27.3635 6.66634 19.9997 6.66634C12.6359 6.66634 6.66634 12.6359 6.66634 19.9997C6.66634 21.5538 6.93227 23.046 7.42111 24.433ZM31.4653 26.8095C30.81 25.9207 28.6177 24.9997 25.833 24.9997C22.4895 24.9997 19.9997 26.3275 19.9997 27.333V33.333C24.8755 33.333 29.1402 30.7157 31.4653 26.8095ZM19.9997 36.6663C10.7949 36.6663 3.33301 29.2043 3.33301 19.9997C3.33301 10.7949 10.7949 3.33301 19.9997 3.33301C29.2043 3.33301 36.6663 10.7949 36.6663 19.9997C36.6663 29.2043 29.2043 36.6663 19.9997 36.6663ZM25.833 20.833C23.992 20.833 22.4997 19.3407 22.4997 17.4997C22.4997 15.6587 23.992 14.1663 25.833 14.1663C27.674 14.1663 29.1663 15.6587 29.1663 17.4997C29.1663 19.3407 27.674 20.833 25.833 20.833Z" fill="#D57A66"/>
</svg>
