<svg width="32" height="32" viewBox="0 0 32 32" fill="none" xmlns="http://www.w3.org/2000/svg">
<path d="M9.67148 24.6585L10.6378 25.222C12.2521 26.1633 14.0868 26.666 16.0013 26.666C21.8924 26.666 26.668 21.8904 26.668 15.9993C26.668 10.1083 21.8924 5.33268 16.0013 5.33268C10.1103 5.33268 5.33464 10.1083 5.33464 15.9993C5.33464 17.9144 5.83761 19.7497 6.77954 21.3644L7.34272 22.3297L6.4714 25.5319L9.67148 24.6585ZM2.67354 29.3327L4.47616 22.708C3.32658 20.7375 2.66797 18.4453 2.66797 15.9993C2.66797 8.63555 8.6375 2.66602 16.0013 2.66602C23.3651 2.66602 29.3347 8.63555 29.3347 15.9993C29.3347 23.3631 23.3651 29.3327 16.0013 29.3327C13.5561 29.3327 11.2647 28.6745 9.29448 27.5256L2.67354 29.3327ZM11.1898 9.74379C11.3683 9.73124 11.5474 9.72932 11.7261 9.73804C11.7983 9.74279 11.8702 9.75113 11.9421 9.75944C12.1545 9.78396 12.388 9.91328 12.4665 10.0913C12.8642 10.9932 13.2502 11.9002 13.6243 12.8122C13.7068 13.0135 13.6571 13.2745 13.5 13.5269C13.4203 13.6564 13.295 13.838 13.15 14.0237C12.9992 14.2167 12.6746 14.5715 12.6746 14.5715C12.6746 14.5715 12.5432 14.7291 12.5927 14.9252C12.612 14.9993 12.6736 15.1073 12.7294 15.1981C12.7604 15.2484 12.7891 15.2933 12.8077 15.3244C13.1489 15.8941 13.6076 16.4717 14.1679 17.0148C14.3284 17.1704 14.4841 17.3292 14.6516 17.4767C15.276 18.0272 15.9824 18.4771 16.7453 18.8103L16.7521 18.8133C16.8648 18.8619 16.9227 18.8884 17.0876 18.9584C17.1708 18.9936 17.2559 19.024 17.3432 19.0471C17.3748 19.0553 17.4072 19.06 17.4397 19.0623C17.6553 19.0752 17.78 18.9369 17.8332 18.8733C18.7979 17.7047 18.8861 17.6284 18.8928 17.6289V17.6311C19.0196 17.4975 19.2189 17.4511 19.3968 17.462C19.478 17.4669 19.5588 17.4825 19.6327 17.5163C20.3417 17.8397 21.5011 18.3443 21.5011 18.3443L22.2764 18.6928C22.4063 18.7555 22.5248 18.9031 22.5305 19.0465C22.534 19.1357 22.5436 19.2797 22.5117 19.5432C22.47 19.8881 22.3651 20.3035 22.2608 20.5211C22.1875 20.6737 22.0925 20.8092 21.9821 20.9239C21.8324 21.0793 21.7212 21.1737 21.5412 21.3079C21.4316 21.3895 21.3748 21.4279 21.3748 21.4279C21.1896 21.5447 21.0852 21.6031 20.8645 21.7205C20.5213 21.9033 20.1421 22.0084 19.7537 22.0284C19.5061 22.0411 19.2592 22.0589 19.0119 22.0456C19.0009 22.0449 18.2543 21.9303 18.2543 21.9303C16.3584 21.4316 14.6051 20.4975 13.1338 19.202C12.833 18.9372 12.554 18.6507 12.2692 18.3672C11.0838 17.1871 10.1864 15.9145 9.64225 14.7108C9.3739 14.1172 9.20398 13.4815 9.2013 12.8273C9.19638 12.0181 9.46132 11.2303 9.95425 10.5885C10.0514 10.462 10.1436 10.3307 10.3028 10.1805C10.4713 10.0214 10.5786 9.93594 10.6941 9.87683C10.8481 9.79804 11.0172 9.75591 11.1898 9.74379Z" fill="#DBD1C5"/>
</svg>
