<svg width="41" height="40" viewBox="0 0 41 40" fill="none" xmlns="http://www.w3.org/2000/svg">
<path d="M26.9993 21.6663L38.6062 28.4367L33.6515 29.8545L37.1927 35.9885L34.306 37.6552L30.7647 31.5212L27.0592 35.1033L26.9993 21.6663ZM23.666 9.99967H26.9993V13.333H35.3327C36.2532 13.333 36.9993 14.0792 36.9993 14.9997V21.6663H33.666V16.6663H16.9993V33.333H23.666V36.6663H15.3327C14.4122 36.6663 13.666 35.9202 13.666 34.9997V26.6663H10.3327V23.333H13.666V14.9997C13.666 14.0792 14.4122 13.333 15.3327 13.333H23.666V9.99967ZM6.99935 23.333V26.6663H3.66602V23.333H6.99935ZM6.99935 16.6663V19.9997H3.66602V16.6663H6.99935ZM6.99935 9.99967V13.333H3.66602V9.99967H6.99935ZM6.99935 3.33301V6.66634H3.66602V3.33301H6.99935ZM13.666 3.33301V6.66634H10.3327V3.33301H13.666ZM20.3327 3.33301V6.66634H16.9993V3.33301H20.3327ZM26.9993 3.33301V6.66634H23.666V3.33301H26.9993Z" fill="#D57A66"/>
</svg>
